/* XPM */
static char * donate_xpm[] = {
"126 47 256 2",
"  	c None",
". 	c #EB001B",
"+ 	c #166BA9",
"@ 	c #D2D4E2",
"# 	c #A2C4DD",
"$ 	c #7379A5",
"% 	c #4589BA",
"& 	c #9D0013",
"* 	c #FBCA54",
"= 	c #E2AE32",
"- 	c #5C93DC",
"; 	c #53A8EA",
"> 	c #977421",
", 	c #5B4514",
"' 	c #BB7816",
") 	c #E0ECF4",
"! 	c #578CD9",
"~ 	c #8BC4F0",
"{ 	c #6598DD",
"] 	c #FECD5A",
"^ 	c #283376",
"/ 	c #9D9D9D",
"( 	c #FDC542",
"_ 	c #DAA730",
": 	c #4699E3",
"< 	c #F0B93C",
"[ 	c #2374AE",
"} 	c #35280B",
"| 	c #FFCA4D",
"1 	c #FFD268",
"2 	c #74591A",
"3 	c #44340F",
"4 	c #F2F2F5",
"5 	c #E9F2F7",
"6 	c #F5F9FC",
"7 	c #85661D",
"8 	c #DEAA31",
"9 	c #EDB635",
"0 	c #ACCBE1",
"a 	c #ECF3F8",
"b 	c #E5B033",
"c 	c #383838",
"d 	c #B68B28",
"e 	c #D3E4EF",
"f 	c #F6340D",
"g 	c #7CA4E1",
"h 	c #B9D2F0",
"i 	c #7EB6EA",
"j 	c #6AA3E3",
"k 	c #9F7A23",
"l 	c #989DBD",
"m 	c #85BFEE",
"n 	c #95BCD8",
"o 	c #7CABE4",
"p 	c #71000E",
"q 	c #F58512",
"r 	c #B4D3F2",
"s 	c #E4E5E9",
"t 	c #8B6B1F",
"u 	c #84B1D2",
"v 	c #C8CBDC",
"w 	c #76BFF1",
"x 	c #49518A",
"y 	c #84B5E9",
"z 	c #F3F6F9",
"A 	c #B5D0E4",
"B 	c #C7992C",
"C 	c #AAC9EE",
"D 	c #EE0A18",
"E 	c #F2B936",
"F 	c #95C2ED",
"G 	c #F79E1B",
"H 	c #89B5D4",
"I 	c #0353C6",
"J 	c #636A9B",
"K 	c #B0CEE2",
"L 	c #8BBAEB",
"M 	c #130E04",
"N 	c #719DDE",
"O 	c #A5A5A5",
"P 	c #84ABE3",
"Q 	c #92B5E7",
"R 	c #9DBEEA",
"S 	c #1A1305",
"T 	c #F5BC36",
"U 	c #1B256D",
"V 	c #F8F8FA",
"W 	c #0A0602",
"X 	c #FF5F00",
"Y 	c #E8B234",
"Z 	c #654D16",
"` 	c #C9DDEC",
" .	c #FFD675",
"..	c #EFEFF2",
"+.	c #C4DBEA",
"@.	c #92CCF4",
"#.	c #DCE9F2",
"$.	c #EAB434",
"%.	c #221907",
"&.	c #9CC1DB",
"*.	c #C8E2F7",
"=.	c #91BAE9",
"-.	c #4C83D6",
";.	c #474747",
">.	c #FDFEFE",
",.	c #74A5E2",
"'.	c #72A6CB",
").	c #D9A630",
"!.	c #196AD0",
"~.	c #F9BE37",
"{.	c #795C1B",
"].	c #6C5318",
"^.	c #A88025",
"/.	c #D5A32F",
"(.	c #394381",
"_.	c #F9FBFC",
":.	c #6EAAE6",
"<.	c #1A1A1A",
"[.	c #FF6604",
"}.	c #2172D4",
"|.	c #1263CD",
"1.	c #2B2009",
"2.	c #4D89D9",
"3.	c #5A5A5A",
"4.	c #004FC5",
"5.	c #7BBBEE",
"6.	c #FFD87E",
"7.	c #619BC5",
"8.	c #DDDEE9",
"9.	c #ED971A",
"0.	c #2F82DA",
"a.	c #292929",
"b.	c #4F8FBE",
"c.	c #F6C040",
"d.	c #E9EAF1",
"e.	c #FBC038",
"f.	c #9BC8F0",
"g.	c #7BACCE",
"h.	c #444D87",
"i.	c #0B5BCA",
"j.	c #3E91E1",
"k.	c #FFC63D",
"l.	c #4DA1E7",
"m.	c #58000B",
"n.	c #9F6612",
"o.	c #88B4E8",
"p.	c #A4CEF2",
"q.	c #EEEFF4",
"r.	c #2D7AB2",
"s.	c #492F09",
"t.	c #715619",
"u.	c #76A8CC",
"v.	c #B7BBD1",
"w.	c #9ABAE8",
"x.	c #8FB8D6",
"y.	c #8187AF",
"z.	c #76ACE6",
"A.	c #DBA830",
"B.	c #5A97C2",
"C.	c #9EC2EC",
"D.	c #FBC84B",
"E.	c #FAC750",
"F.	c #F4C75A",
"G.	c #E7B133",
"H.	c #916F20",
"I.	c #878DB3",
"J.	c #4A3810",
"K.	c #7F520E",
"L.	c #2B0006",
"M.	c #A9A9A9",
"N.	c #FFDC8A",
"O.	c #FEC339",
"P.	c #E5E5E5",
"Q.	c #FEC439",
"R.	c #FEC338",
"S.	c #FDC238",
"T.	c #3689DD",
"U.	c #FCC138",
"V.	c #FFC339",
"W.	c #E0E0E0",
"X.	c #DFEBF4",
"Y.	c #DFAC31",
"Z.	c #FAFCFE",
"`.	c #3F300E",
" +	c #287AD7",
".+	c #5AB0ED",
"++	c #81631C",
"@+	c #FFDA85",
"#+	c #FBC84E",
"$+	c #F2BF45",
"%+	c #F5C24A",
"&+	c #3F86B8",
"*+	c #F9C74A",
"=+	c #E6F0F6",
"-+	c #2779D6",
";+	c #307CB2",
">+	c #DBE9F2",
",+	c #A2A2A2",
"'+	c #FEC239",
")+	c #9CBAE8",
"!+	c #A7C8DF",
"~+	c #A4C9EF",
"{+	c #AAC4EB",
"]+	c #7C5F1B",
"^+	c #7980AA",
"/+	c #616161",
"(+	c #5E6598",
"_+	c #3978D2",
":+	c #F01316",
"<+	c #62B8F1",
"[+	c #8F94B8",
"}+	c #BF922A",
"|+	c #D6D8E5",
"1+	c #DEDFE4",
"2+	c #97B7E7",
"3+	c #E3EEF5",
"4+	c #F17D0F",
"5+	c #D6E5F0",
"6+	c #D7ECFA",
"7+	c #BDC0D5",
"8+	c #FAC037",
"9+	c #D91B11",
"0+	c #6BA1C8",
"a+	c #A4C0EA",
"b+	c #B0D3F3",
"c+	c #E0E1EB",
"d+	c #CDE0ED",
"e+	c #DCA730",
"f+	c #E88815",
"g+	c #D8EBFA",
"h+	c #B7D8F4",
"i+	c #5A390A",
"j+	c #FFC745",
"k+	c #BCDAF5",
"l+	c #F4BB36",
"m+	c #A5A9C6",
"n+	c #ACB0CA",
"o+	c #BCD1F0",
"p+	c #BBD4E6",
"q+	c #427CD4",
"r+	c #7C4F0E",
"s+	c #554113",
"t+	c #75B6EC",
"u+	c #74B9EE",
"v+	c #E7B233",
"w+	c #7FAED0",
"x+	c #4089DA",
"y+	c #FFCF5D",
"z+	c #B2CEF0",
"A+	c #4F578F",
"B+	c #B6CCEE",
"C+	c #D3D5DB",
"D+	c #95C7F0",
"E+	c #000000",
"F+	c #FFFFFF",
"G+	c #FFC439",
"                                                                                                                                                                                                                                                            ",
"                                              y+| j+k.O.O.G+O.G+G+Q.G+Q.Q.G+Q.G+G+O.G+O.O.Q.O.Q.Q.O.Q.O.O.Q.O.Q.Q.G+Q.G+G+R.G+R.R.O.R.O.O.G+O.G+G+G+G+G+G+G+G+G+G+R.G+R.R.Q.R.Q.Q.O.Q.O.O.G+O.G+G+Q.G+k.j+| y+                                              ",
"                                          | ( y+ .6.@+N.N.N.N.N.N.N.N.N.N.N.N.N.N.N.N.N.N.N.N.N.N.N.N.N.N.N.N.N.N.N.N.N.N.N.N.N.N.N.N.N.N.N.N.N.N.N.N.N.N.N.N.N.N.N.N.N.N.N.N.N.N.N.N.N.N.N.N.N.N.N.N.@+6. .] ( |                                           ",
"                                      * ( 1 6.1 | j+k.G+G+G+G+G+G+G+G+G+G+G+G+G+G+G+G+G+G+G+G+G+G+G+G+G+G+G+G+G+G+G+G+G+G+G+G+G+G+G+G+G+G+G+G+G+G+G+G+G+G+G+G+G+G+G+G+G+G+G+G+G+G+G+G+G+G+G+G+G+G+G+G+k.j+| 1 6.1 ( ]                                       ",
"                                    D.*  .| G+G+G+G+G+G+G+G+G+G+G+G+G+G+G+G+G+G+G+G+G+G+G+G+G+G+G+G+G+G+G+G+G+G+G+G+G+G+G+G+G+G+G+G+G+G+G+G+G+G+G+G+G+G+G+G+G+G+G+G+G+G+G+G+G+G+G+G+G+G+G+G+G+G+G+G+G+G+G+G+G+G+|  .* D.                                    ",
"                                  *+] ] G+G+G+G+G+G+G+G+G+G+G+G+G+G+G+G+G+G+G+G+G+G+G+G+G+G+G+G+G+G+G+G+G+G+G+G+G+G+G+G+G+G+G+G+G+G+G+G+G+G+G+G+G+G+G+G+G+G+G+G+G+G+G+G+G+G+G+G+G+G+G+G+G+G+G+G+G+G+G+G+G+G+G+G+G+G+] ] *+                                  ",
"                                * E.| G+G+G+G+G+G+G+G+G+G+G+G+G+G+G+G+G+G+G+G+G+G+G+G+G+G+G+G+G+G+G+G+G+G+G+G+G+G+G+G+G+G+G+G+G+G+G+G+G+G+G+G+G+G+G+G+G+G+G+G+G+G+G+G+G+G+G+G+G+G+G+G+G+G+G+G+G+G+G+G+G+G+G+G+G+G+G+G+| E.*                                 ",
"                                c.| G+G+G+G+G+G+G+G+G+G+G+G+G+G+G+G+G+G+S.= T G+G+G+G+G+G+G+G+G+G+G+G+G+G+G+G+G+G+G+G+G+G+G+G+G+G+G+G+G+G+G+G+G+G+t } k G+G+G+G+G+G+G+G+G+G+G+G+G+G+G+G+G+G+G+G+G+G+G+G+G+G+G+G+G+G+G+G+| c.                                ",
"                              %+#+G+G+G+G+G+G+G+G+G+G+G+G+G+G+G+G+G+~.t.W E+E+`.8 G+G+G+G+G+G+G+G+G+G+G+G+G+G+G+G+G+G+G+G+G+G+G+G+G+G+G+G+G+G+G+G+t.E+7 G+G+G+G+G+G+G+G+G+G+G+G+G+G+G+G+G+G+G+G+G+G+G+G+G+G+G+G+G+G+G+G+G+#+%+                              ",
"                              c.G+G+G+G+G+G+G+G+G+G+G+G+G+G+G+G+G+G+].E+E+1.M E+d G+G+G+G+G+G+G+G+G+G+G+G+G+G+G+G+G+G+G+G+G+G+G+G+G+G+G+G+G+G+G+G+2 E+7 G+G+G+G+G+G+G+G+G+G+G+G+G+G+G+G+G+G+G+G+G+G+G+G+G+G+G+G+G+G+G+G+G+G+c.                              ",
"                            F.c.G+G+G+G+G+G+G+G+G+G+G+G+G+G+G+G+G+R.W E+d G+G+k B G+G+G+G+G+G+G+G+G+G+G+G+G+G+G+G+G+G+G+G+G+G+G+G+G+G+G+G+G+G+G+G+2 E+7 G+G+G+G+G+G+G+G+G+G+G+G+G+G+G+G+G+G+G+G+G+G+G+G+G+G+G+G+G+G+G+G+G+G+c.F.                            ",
"                            $+e.G+G+G+G+G+G+G+G+G+G+G+G+G+G+G+G+G+9 E+E+$.G+G+G+G+G+$.1.} ++%.S {.U.G+G+$., S %.]+R.G+$.1.} t 1.M t.G+G+G+E Z S S S E+7 G+G+$., S %.]+R.G+$.1.} t 1.M t.G+G+G+G+G+G+G+G+G+G+G+G+G+G+G+G+G+G+e.$+                            ",
"                            < S.G+G+G+G+G+G+G+G+G+G+G+G+G+G+G+G+G+G+1.E+%.> l+G+G+G+b E+E+W } E+E+t G+~.1.E+`.%.E+t G+b E+E+W } E+E+/.G+U.} E+M s+S E+7 G+~.1.E+`.%.E+t G+b E+E+W } E+E+/.G+G+G+G+G+G+G+G+G+G+G+G+G+G+G+G+G+S.<                             ",
"                            9 V.G+G+G+G+G+G+G+G+G+G+G+G+G+G+G+G+G+G+/.} E+E+S k R.G+b E+M l+G+H.E+%.G+> E+].G+E E+1.G+b E+M l+G+, E+t G+k E+1.E G+2 E+7 G+> E+].G+E E+1.G+b E+M l+G+, E+t G+G+G+G+G+G+G+G+G+G+G+G+G+G+G+G+G+V.9                             ",
"                            $.V.G+G+G+G+G+G+G+G+G+G+G+G+G+G+G+G+G+G+G+U.k 1.E+E+H.G+b E+M G+G+G.E+E+8+Z E+`., , W W G+b E+M G+G+7 E+2 G+].E+{.G+G+2 E+7 G+Z E+`., , W W G+b E+M G+G+7 E+2 G+G+G+G+G+G+G+G+G+G+G+G+G+G+G+G+G+Q.9                             ",
"                            9 U.G+G+G+G+G+G+G+G+G+G+G+G+G+G+G+G+G+G+G+G+G+G+t.E+} G+b E+M G+G+Y.E+W G+, E+3 Z Z Z ].G+b E+M G+G+7 E+2 G+s+E+H.G+G+2 E+7 G+, E+3 Z Z Z ].G+b E+M G+G+7 E+2 G+G+G+G+G+G+G+G+G+G+G+G+G+G+G+G+G+U.9                             ",
"                            $.~.G+G+G+G+G+G+G+G+G+G+G+G+G+G+G+G+G+B ^.R.G+G+]+E+J.G+b E+M G+G+> E+`.G+t E+J.G+G+G+G+G+b E+M G+G+7 E+2 G+{.E+J.G+G+t.E+7 G+t E+J.G+G+G+G+G+b E+M G+G+7 E+2 G+G+G+G+G+G+G+G+G+G+G+G+G+G+G+G+G+~.$.                            ",
"                              E G+G+G+G+G+G+G+G+G+G+G+G+G+G+G+G+G+^.E+S 3 1.E+E+d G+b E+W {., W E+}+G+E S E+} 2 ].Z G+b E+M G+G+7 E+2 G+).E+E+} s+W E+7 G+E S E+} 2 ].Z G+b E+M G+G+7 E+2 G+G+G+G+G+G+G+G+G+G+G+G+G+G+G+G+G+E                               ",
"                              v+G+G+G+G+G+G+G+G+G+G+G+G+G+G+G+G+G+A.s+W E+E+%.^.G+G+b E+E+W E+S ^.G+G+G+A.3 E+E+S ++G+b E+M G+G+7 E+2 G+G+^.M E+%.3 E+7 G+G+A.3 E+E+S ++G+b E+M G+G+7 E+2 G+G+G+G+G+G+G+G+G+G+G+G+G+G+G+G+G+G.                              ",
"                              b T G+G+G+G+G+G+G+G+G+G+G+G+G+G+G+G+G+G+U.= 9 G+G+G+G+b E+M e.b G+G+G+G+G+G+G+~.b G+G+G+G+G+G+G+G+G+G+G+G+G+G+S.b G+G+G+G+G+G+G+G+~.b G+G+G+G+G+G+G+G+G+G+G+G+G+G+G+G+G+G+G+G+G+G+G+G+G+G+G+T b                               ",
"                                b O.G+G+G+G+G+G+G+G+G+G+G+G+G+G+G+G+G+G+G+G+G+G+G+G+b E+M G+G+G+G+G+G+G+G+G+G+G+G+G+G+G+G+G+G+G+G+G+G+G+G+G+G+G+G+G+G+G+G+G+G+G+G+G+G+G+G+G+G+G+G+G+G+G+G+G+G+G+G+G+G+G+G+G+G+G+G+G+G+G+O.b                                 ",
"                                = $.G+G+G+G+G+G+G+G+G+G+G+G+G+G+G+G+G+G+G+G+G+G+G+G+b E+M G+G+G+G+G+G+G+G+G+G+G+G+G+G+G+G+G+G+G+G+G+G+G+G+G+G+G+G+G+G+G+G+G+G+G+G+G+G+G+G+G+G+G+G+G+G+G+G+G+G+G+G+G+G+G+G+G+G+G+G+G+G+G+$.=                                 ",
"                                  = 9 G+G+G+G+G+G+G+G+G+G+G+G+G+G+G+G+G+G+G+G+G+G+G+~.B B G+G+G+G+G+G+G+G+G+G+G+G+G+G+G+G+G+G+G+G+G+G+G+G+G+G+G+G+G+G+G+G+G+G+G+G+G+G+G+G+G+G+G+G+G+G+G+G+G+G+G+G+G+G+G+G+G+G+G+G+G+G+9 =                                   ",
"                                    Y.Y O.G+G+G+G+G+G+G+G+G+G+G+G+G+G+G+G+G+G+G+G+G+G+G+G+G+G+G+G+G+G+G+G+G+G+G+G+G+G+G+G+G+G+G+G+G+G+G+G+G+G+G+G+G+G+G+G+G+G+G+G+G+G+G+G+G+G+G+G+G+G+G+G+G+G+G+G+G+G+G+G+G+G+G+G+O.Y Y.                                    ",
"                                      Y.Y.E V.G+G+G+G+G+G+G+G+G+G+G+G+G+G+G+G+G+G+G+G+G+G+G+G+G+G+G+G+G+G+G+G+G+G+G+G+G+G+G+G+G+G+G+G+G+G+G+G+G+G+G+G+G+G+G+G+G+G+G+G+G+G+G+G+G+G+G+G+G+G+G+G+G+G+G+G+G+G+G+G+V.E Y.Y.                                      ",
"                                          8 8 $.T 8+'+G+G+G+G+G+G+G+G+G+G+G+G+G+G+G+G+G+G+G+G+G+G+G+G+G+G+G+G+G+G+G+G+G+G+G+G+G+G+G+G+G+G+G+G+G+G+G+G+G+G+G+G+G+G+G+G+G+G+G+G+G+G+G+G+G+G+G+G+G+G+G+G+'+8+T $.8 8                                           ",
"                                                e+A._ _ _ _ _ _ _ )._ ).)._ )._ _ )._ ).)._ )._ _ )._ ).).).).).)._ )._ _ )._ ).)._ )._ _ _ _ _ _ )._ ).)._ )._ _ )._ ).).).).).)._ )._ _ _ _ _ _ )._ _ A.A.                                                ",
"                                                                                                                                                                                                                                                            ",
"                                                                                                                                                                                                                                                            ",
"                                                                                                                                                                                                                                                            ",
"                                                                                                                                                                                                                                                            ",
"                                                                                                                                                                                                                                                            ",
"                              / O M.M.M.M.M.M.M.M.M.M.M.M.M.M.M.M.O       E+E+E+E+E+E+E+E+E+E+E+E+E+E+E+E+E+E+E+      : l.; ; .+; ; l.: j.T. +}.!.|.i.I 4.4.4.      / M.M.M.M.M.M.M.M.M.M.M.M.M.M.M.M.M.M.M.M.M.M.M.M.M.M./                                 ",
"                              O F+F+F+F+F+F+F+F+F+F+F+F+F+F+F+F+F+F+,+    E+E+E+E+E+m.& & & L.s.n.' n.s.E+E+E+E+E+    : l.; .+<+.+; l.: j.T.0.}.!.|.i.I 4.4.4.      W.F+F+F+F+F+F+F+F+F+F+F+F+F+F+F+F+F+F+F+F+F+F+F+F+F+F+W.                                ",
"                              M.F+F+F+F+F+F+F+F+F+F+F+F+F+F+F+F+F+F+O     E+E+E+E+& . . . . f q G G G G K.E+E+E+E+    l.m ~ @.w @.~ m i i :.j - { - 2.! q+-.4.    / P.F+F+F+F+F+F+F+F+F+F+F+F+F+F+F+F+F+F+F+F+F+F+F+F+F+F+P./                               ",
"                              M.F+d.8.d.F+V 8.4 c+F+z @ q.F+V 8.>.F+O     E+E+E+L.. . . . :+X X G G G G G S E+E+E+    D+t+g+w 6+u+p.f.r i z.=.R R - h _+o+g 4.    / P.F+F+z ..F+F+F+F+F+x.[ b.X.+ [ % p++ r.H F+u [ Z.F+F+P./                               ",
"                              M.F+q.$ ^ V l (.l (.|+^ (.J F+(+U |+F+O     E+E+E+m.. . . . f X X q G G G G s.E+E+E+    f.5.~ D+5.~ D+f.b+:.j y o h 2.! { -.N 4.    / P.F+F+..C+s _.6 u._.;+!+Z.>+[ e a A b.3++ F+r.B.A F+F+P./                               ",
"                              M.F+F+q.(.v h.[+$ J [+^ |+F+c+U (.m+F+O     E+E+E+p . . . . f X X 4+G G G G i+E+E+E+    h+p.b+*.h+*.k+F r C r z+C o Q w.a+2+)+4.    / P.F+F+4 Z.1+s 7.&.F+` &+% #.+ 7.A A + r.'.d+;+u B.F+F+P./                               ",
"                              M.F+F+F+h.^+U d.A+I.4 J U 7+y.J ^+$ F+O     E+E+E+m.. . . . f X X q G G G G s.E+E+E+    T.j.j.: i i y : z.z.j j { - - ! -.! -.!     / P.F+F+F+V 4 &.g.F+F+x.&.[ >++ &.0 A b.Z.F+u.&+7.+ 6 F+P./                               ",
"                              M.F+F+F+y.U J F+^ n+v.@ ^ I.^ U U h.F+O     E+E+E+L.. . . . D X [.G G G G 9.M E+E+E+    0.T.T.T.F L y ~+j o.o { ,.o N a+- {+! Q     / P.F+F+X.) A % e 6 F+K u e a H H &.#.0 F+F+# 3+F+&.) F+P./                               ",
"                              M.F+F+F+v x v z h.|+A+(.$ v.A+q.@ x >.O     E+E+E+E+m.. . . . 9+f+G G G 9.s.E+E+E+E+    0.0.0.0.L y ~+x+C.,.R 2.2.g { B+g { P -.    / P.F+F+X.d+'.=+F+X.F+>+F+F+F+>.=+F+F+F+5+F+F+5 +.) F+F+P./                               ",
"                              M.F+F+F+F+F+F+F+F+F+F+F+F+F+F+F+F+F+F+O     E+E+E+E+E+L.p & p W %.K.n.r+S E+E+E+E+E+     +-+ +-+C o.=.C.o.=.- C R w.N 2+N R N g     / P.F+5 z g.w+u d+) F+H ) b.x.!+x.B.!++.b.&.n n 0+g.a F+P./                               ",
"                              M.F+F+F+F+F+F+F+F+F+F+F+F+F+F+F+F+F+F+O     E+E+E+E+a.<.a.<.a.<.<.<.<.<.<.c E+E+E+E+    }.}.}.}.}.}.}.!.!.|.i.i.I 4.4.4.4.4.4.4.    / P.F+a 3+) ) ) ) ) F+g.K u.+.K !+H A ` 0 # e 0 A K a F+P./                               ",
"                              O F+F+F+F+F+F+F+F+F+F+F+F+F+F+F+F+F+F+,+    E+E+E+E+;.c 3.;.c ;.3.a.c ;.c 3.E+E+E+E+    !.!.!.!.!.!.!.|.|.i.I I 4.4.4.4.4.4.4.4.      W.F+F+F+F+F+F+F+F+F+F+F+F+F+F+F+F+F+F+F+F+F+F+F+F+F+F+W.                                ",
"                              / O M.M.M.M.M.M.M.M.M.M.M.M.M.M.M.M.O       E+E+E+E+E+E+E+E+E+E+E+E+E+E+E+E+E+E+E+      |.|.|.|.|.|.i.i.i.I I 4.4.4.4.4.4.4.4.4.      / M.M.M.M.M.M.M.M.M.M.M.M.M.M.M.M.M.M.M.M.M.M.M.M.M.M./                                 ",
"                                                                                                                                                                                                                                                            ",
"                                                                                                                                                                                                                                                            "};
